<mxfile host="app.diagrams.net" modified="2022-03-08T23:26:47.317Z" agent="5.0 (Windows NT 10.0; Win64; x64) AppleWebKit/537.36 (KHTML, like Gecko) Chrome/99.0.4844.51 Safari/537.36" etag="9ycD3U8eMyHmKslHaTO1" version="17.0.0" type="github">
  <diagram id="YssgMRenG7kQ0ZKm0Pmk" name="Page-1">
    <mxGraphModel dx="1363" dy="624" grid="1" gridSize="10" guides="1" tooltips="1" connect="1" arrows="1" fold="1" page="1" pageScale="1" pageWidth="850" pageHeight="1100" math="0" shadow="0">
      <root>
        <mxCell id="0" />
        <mxCell id="1" parent="0" />
        <mxCell id="3AhlCatbuhtp1w4Drxqu-24" value="" style="swimlane;startSize=0;" vertex="1" parent="1">
          <mxGeometry x="448" y="120" width="336" height="470" as="geometry" />
        </mxCell>
        <mxCell id="3AhlCatbuhtp1w4Drxqu-25" value="" style="verticalLabelPosition=bottom;verticalAlign=top;html=1;shape=mxgraph.basic.patternFillRect;fillStyle=grid;step=5;fillStrokeWidth=0.2;fillStrokeColor=#dddddd;" vertex="1" parent="3AhlCatbuhtp1w4Drxqu-24">
          <mxGeometry x="-382" y="-35" width="718" height="520" as="geometry" />
        </mxCell>
        <mxCell id="3AhlCatbuhtp1w4Drxqu-28" value="" style="swimlane;startSize=0;" vertex="1" parent="3AhlCatbuhtp1w4Drxqu-24">
          <mxGeometry x="13" y="10" width="310" height="440" as="geometry" />
        </mxCell>
        <mxCell id="3AhlCatbuhtp1w4Drxqu-20" value="" style="outlineConnect=0;dashed=0;verticalLabelPosition=bottom;verticalAlign=top;align=center;html=1;shape=mxgraph.aws3.rds_db_instance_read_replica;fillColor=#2E73B8;gradientColor=none;" vertex="1" parent="3AhlCatbuhtp1w4Drxqu-28">
          <mxGeometry x="199" y="30" width="49.5" height="66" as="geometry" />
        </mxCell>
        <mxCell id="3AhlCatbuhtp1w4Drxqu-21" value="" style="outlineConnect=0;dashed=0;verticalLabelPosition=bottom;verticalAlign=top;align=center;html=1;shape=mxgraph.aws3.classic_load_balancer;fillColor=#F58534;gradientColor=none;" vertex="1" parent="3AhlCatbuhtp1w4Drxqu-28">
          <mxGeometry x="130.5" y="340" width="49" height="50" as="geometry" />
        </mxCell>
        <mxCell id="3AhlCatbuhtp1w4Drxqu-31" value="Canada Central" style="text;html=1;strokeColor=none;fillColor=none;align=center;verticalAlign=middle;whiteSpace=wrap;rounded=0;" vertex="1" parent="3AhlCatbuhtp1w4Drxqu-24">
          <mxGeometry x="-268" y="-30" width="110" height="30" as="geometry" />
        </mxCell>
        <mxCell id="3AhlCatbuhtp1w4Drxqu-32" value="Ohio" style="text;html=1;strokeColor=none;fillColor=none;align=center;verticalAlign=middle;whiteSpace=wrap;rounded=0;" vertex="1" parent="3AhlCatbuhtp1w4Drxqu-24">
          <mxGeometry x="113" y="-30" width="110" height="30" as="geometry" />
        </mxCell>
        <mxCell id="3AhlCatbuhtp1w4Drxqu-35" value="" style="rounded=1;whiteSpace=wrap;html=1;" vertex="1" parent="3AhlCatbuhtp1w4Drxqu-24">
          <mxGeometry x="42" y="150" width="267.25" height="170" as="geometry" />
        </mxCell>
        <mxCell id="3AhlCatbuhtp1w4Drxqu-26" value="" style="swimlane;startSize=0;" vertex="1" parent="1">
          <mxGeometry x="90" y="130" width="310" height="440" as="geometry" />
        </mxCell>
        <mxCell id="3AhlCatbuhtp1w4Drxqu-3" value="" style="outlineConnect=0;dashed=0;verticalLabelPosition=bottom;verticalAlign=top;align=center;html=1;shape=mxgraph.aws3.rds_db_instance_read_replica;fillColor=#2E73B8;gradientColor=none;" vertex="1" parent="3AhlCatbuhtp1w4Drxqu-26">
          <mxGeometry x="180" y="30" width="49.5" height="66" as="geometry" />
        </mxCell>
        <mxCell id="3AhlCatbuhtp1w4Drxqu-10" value="" style="outlineConnect=0;dashed=0;verticalLabelPosition=bottom;verticalAlign=top;align=center;html=1;shape=mxgraph.aws3.classic_load_balancer;fillColor=#F58534;gradientColor=none;" vertex="1" parent="3AhlCatbuhtp1w4Drxqu-26">
          <mxGeometry x="130.5" y="340" width="49" height="50" as="geometry" />
        </mxCell>
        <mxCell id="3AhlCatbuhtp1w4Drxqu-34" value="" style="rounded=1;whiteSpace=wrap;html=1;" vertex="1" parent="1">
          <mxGeometry x="112.75" y="270" width="267.25" height="170" as="geometry" />
        </mxCell>
        <mxCell id="3AhlCatbuhtp1w4Drxqu-2" value="" style="outlineConnect=0;dashed=0;verticalLabelPosition=bottom;verticalAlign=top;align=center;html=1;shape=mxgraph.aws3.rds_db_instance;fillColor=#2E73B8;gradientColor=none;" vertex="1" parent="1">
          <mxGeometry x="148" y="160" width="49.5" height="66" as="geometry" />
        </mxCell>
        <mxCell id="3AhlCatbuhtp1w4Drxqu-12" value="" style="outlineConnect=0;dashed=0;verticalLabelPosition=bottom;verticalAlign=top;align=center;html=1;shape=mxgraph.aws3.ec2;fillColor=#F58534;gradientColor=none;" vertex="1" parent="1">
          <mxGeometry x="138" y="290" width="53.5" height="53" as="geometry" />
        </mxCell>
        <mxCell id="3AhlCatbuhtp1w4Drxqu-13" value="" style="outlineConnect=0;dashed=0;verticalLabelPosition=bottom;verticalAlign=top;align=center;html=1;shape=mxgraph.aws3.ec2;fillColor=#F58534;gradientColor=none;" vertex="1" parent="1">
          <mxGeometry x="138" y="370" width="53.5" height="53" as="geometry" />
        </mxCell>
        <mxCell id="3AhlCatbuhtp1w4Drxqu-16" value="" style="outlineConnect=0;dashed=0;verticalLabelPosition=bottom;verticalAlign=top;align=center;html=1;shape=mxgraph.aws3.rds_db_instance_read_replica;fillColor=#2E73B8;gradientColor=none;" vertex="1" parent="1">
          <mxGeometry x="578.25" y="660" width="49.5" height="66" as="geometry" />
        </mxCell>
        <mxCell id="3AhlCatbuhtp1w4Drxqu-19" value="" style="outlineConnect=0;dashed=0;verticalLabelPosition=bottom;verticalAlign=top;align=center;html=1;shape=mxgraph.aws3.rds_db_instance;fillColor=#2E73B8;gradientColor=none;" vertex="1" parent="1">
          <mxGeometry x="518" y="160" width="49.5" height="66" as="geometry" />
        </mxCell>
        <mxCell id="3AhlCatbuhtp1w4Drxqu-22" value="" style="outlineConnect=0;dashed=0;verticalLabelPosition=bottom;verticalAlign=top;align=center;html=1;shape=mxgraph.aws3.ec2;fillColor=#F58534;gradientColor=none;" vertex="1" parent="1">
          <mxGeometry x="508" y="290" width="53.5" height="53" as="geometry" />
        </mxCell>
        <mxCell id="3AhlCatbuhtp1w4Drxqu-23" value="" style="outlineConnect=0;dashed=0;verticalLabelPosition=bottom;verticalAlign=top;align=center;html=1;shape=mxgraph.aws3.ec2;fillColor=#F58534;gradientColor=none;" vertex="1" parent="1">
          <mxGeometry x="508" y="370" width="53.5" height="53" as="geometry" />
        </mxCell>
        <mxCell id="3AhlCatbuhtp1w4Drxqu-8" value="" style="outlineConnect=0;dashed=0;verticalLabelPosition=bottom;verticalAlign=top;align=center;html=1;shape=mxgraph.aws3.route_53;fillColor=#F58536;gradientColor=none;" vertex="1" parent="1">
          <mxGeometry x="400" y="560" width="70" height="85.5" as="geometry" />
        </mxCell>
        <mxCell id="3AhlCatbuhtp1w4Drxqu-33" value="Quebec" style="text;html=1;strokeColor=none;fillColor=none;align=center;verticalAlign=middle;whiteSpace=wrap;rounded=0;" vertex="1" parent="1">
          <mxGeometry x="573" y="726" width="60" height="30" as="geometry" />
        </mxCell>
        <mxCell id="3AhlCatbuhtp1w4Drxqu-36" value="" style="outlineConnect=0;dashed=0;verticalLabelPosition=bottom;verticalAlign=top;align=center;html=1;shape=mxgraph.aws3.virtual_private_cloud;fillColor=#F58534;gradientColor=none;" vertex="1" parent="1">
          <mxGeometry x="50" y="60" width="50" height="34" as="geometry" />
        </mxCell>
      </root>
    </mxGraphModel>
  </diagram>
</mxfile>
